<?xml version="1.0" encoding="UTF-8"?>
<svg xmlns="http://www.w3.org/2000/svg" width="320" height="70" viewBox="0 0 320 70" fill="none">
  <path d="M317.604 30.756C317.471 27.5559 317.811 24.2707 317.703 21.0625C317.898 20.2149 319.299 20.1256 319.979 19.8701L320 19.282H312.853C312.629 20.4379 314.233 19.9837 314.789 20.6529C314.897 20.7827 315.183 21.6669 315.183 21.7885V25.5889L314.951 25.816H307.103V21.3302C307.103 21.1193 307.509 20.5637 307.737 20.4298C308.409 20.0324 309.847 20.2838 309.59 19.278H302.29C301.975 20.3041 303.745 20.0608 304.272 20.5353C304.483 20.7259 304.603 21.3302 304.628 21.6263C304.831 23.8084 304.906 29.5717 304.612 31.6564C304.583 31.8551 304.367 32.4108 304.205 32.5122L302.307 32.9705L302.29 33.7168H309.59L309.574 32.9705C308.832 32.788 307.103 32.7028 307.103 31.6645V26.7245H314.951L315.183 26.9516V31.3603C315.183 32.7393 313.877 32.642 312.874 32.9786L312.853 33.7168H320L319.847 33.0313C318.06 32.5568 317.683 32.6947 317.604 30.752V30.756Z" fill="#142C52"></path>
  <path d="M208.728 32.6176C208.048 32.3216 208.027 31.5591 207.982 30.9182C207.82 28.7321 207.708 23.5772 208.031 21.529C208.251 20.1256 209.3 20.227 210.457 19.8742L210.473 19.282H203.326C203.048 20.5393 205.503 19.9796 205.503 21.1802V25.816H197.58V21.1802C197.58 20.1256 199.852 20.1743 200.043 19.8661C200.126 19.7282 200.043 19.4564 200.068 19.282H192.842C192.684 19.282 192.514 19.785 192.61 19.8904C192.668 19.9553 193.99 20.227 194.251 20.3365C195.056 20.6813 195.052 21.46 195.101 22.2387C195.251 24.4613 195.371 29.3892 195.052 31.4779C194.786 33.2138 193.062 32.5527 192.676 33.1043C192.514 33.3355 192.689 33.7208 192.842 33.7208H200.068C200.341 32.2891 197.58 33.1571 197.58 31.8227V26.7326H205.503V31.9768C205.503 32.646 203.828 32.7799 203.347 32.9867L203.326 33.7249H210.473C210.676 32.6704 209.395 32.9097 208.728 32.6217V32.6176Z" fill="#142C52"></path>
  <path d="M146.088 32.6947C144.55 32.0985 142.162 27.8885 141.026 26.5501C140.972 26.2216 141.072 26.3716 141.25 26.323C142.543 25.9458 143.688 25.6984 144.508 24.4938C145.234 23.4352 145.08 21.529 144.135 20.6245C143.277 19.8012 141.192 19.282 140.015 19.1847C137.453 18.9738 134.604 19.3429 132.013 19.1847C131.814 20.4825 133.879 19.7971 134.157 20.9652C134.061 24.1774 134.372 27.4545 134.256 30.6587C134.182 32.7474 133.817 32.3216 132.001 32.938L132.013 33.6194H139.161L139.144 32.8731C138.622 32.7028 137.403 32.6338 137.063 32.2485C136.959 32.1309 136.673 31.2265 136.673 31.1129V26.6272C137.092 26.6515 137.548 26.5704 137.962 26.6596C138.912 26.8664 140.686 30.3747 141.428 31.3279C143.099 33.4775 144.716 34.386 147.543 33.6113C147.729 32.5811 146.83 32.9786 146.092 32.6947H146.088ZM136.673 25.7186V20.0932H139.546C140.039 20.0932 141.465 20.8151 141.801 21.2288C142.601 22.2144 142.46 24.149 141.407 24.9561C141.055 25.2279 139.786 25.7186 139.389 25.7186H136.669H136.673Z" fill="#142C52"></path>
  <path d="M179.087 26.7894C180.666 26.9557 181.396 26.976 181.57 28.6916C181.628 29.2675 181.661 32.0823 181.375 32.3743C180.89 32.8691 178.784 33.0678 178.067 33.0273C171.791 32.6501 170.435 23.1675 175.716 20.5312C177.76 19.5132 180.691 19.7079 182.192 21.5452C182.756 22.2387 182.909 23.5244 184.057 23.2933L183.676 19.9431C177.242 17.1324 167.919 20.7583 170 28.7646C171.268 33.6438 177.022 34.6172 181.392 33.6803C182.362 33.4734 183.286 33.08 184.186 32.6906C184.621 30.6019 183.004 27.1869 186.051 26.7651L186.076 26.177H179.24L179.083 26.7853L179.087 26.7894Z" fill="#142C52"></path>
  <path d="M248.77 19.3145C246.109 19.0955 243.153 19.4808 240.458 19.3145L240.479 19.9026L242.618 20.7705C242.817 21.3262 242.913 21.9832 242.95 22.5713C243.082 24.6033 243.223 29.4946 242.904 31.3563C242.618 33.0313 240.836 32.6744 240.529 33.1327C240.409 33.3152 240.462 33.5464 240.458 33.7452H247.916L247.9 32.9989C247.365 32.865 245.429 32.7069 245.429 31.9971V20.0648C248.522 19.7485 252.319 21.2491 250.938 24.9237C250.147 27.0368 248.227 26.3351 246.631 26.6393C246.469 26.6718 246.084 26.7285 246.204 26.976C248.774 28.5415 253.384 27.341 253.799 24.072C254.218 20.7584 251.747 19.5497 248.766 19.3023L248.77 19.3145Z" fill="#142C52"></path>
  <path d="M272.657 32.0904L267.405 19.7525C267.173 19.3956 266.248 19.0995 265.858 19.1279C265.378 19.1644 265.386 20.081 265.232 20.4947C263.989 23.8895 262.43 28.2333 260.888 31.4455C260.378 32.5081 259.947 32.7474 258.815 33.1408L258.79 33.8749H264.229L264.221 33.1206C260.448 32.9583 262.675 30.103 263.28 28.0386L268.404 27.9656C268.665 29.1256 269.896 30.9629 269.664 32.1228C269.469 33.0962 267.554 32.6906 267.803 33.8749H274.481L274.465 33.1327C273.801 32.9908 273.005 32.6947 272.657 32.0904ZM263.761 26.8827L265.626 21.7155C265.817 21.7318 265.887 21.9264 265.966 22.0643C266.758 23.4879 267.115 25.4347 267.956 26.8827H263.761Z" fill="#142C52"></path>
  <path d="M294.136 19.1969L279.916 19.209L279.763 22.8593C280.696 22.985 280.936 21.752 281.475 21.1153C281.678 20.876 282.101 20.4298 282.395 20.3406C282.967 20.1703 284.837 20.0445 285.442 20.1135C285.67 20.1378 285.84 20.1337 285.977 20.3487V31.4455C285.977 32.4392 284.132 32.9056 283.398 33.1895L283.49 33.8019H290.948C291.134 32.7434 290.048 33.1611 289.285 32.7677C289.053 32.646 288.46 32.1066 288.46 31.9038V20.1256C289.791 20.3122 291.976 19.8701 292.875 20.8962C293.302 21.383 294.04 23.3906 294.828 22.8593L294.339 19.2334L294.131 19.1969H294.136Z" fill="#142C52"></path>
  <path d="M232.689 19.2131C232.084 19.136 231.508 19.355 230.911 19.3753C227.279 19.4889 223.184 19.501 219.556 19.3753C219.113 19.3591 218.694 19.1604 218.242 19.2171L217.931 22.8633C219.291 22.908 219.312 20.7746 220.58 20.3609C220.941 20.2433 224.021 20.004 224.145 20.1256V31.7537C224.145 32.788 221.318 32.6582 221.658 33.806H229.269C229.448 32.5284 227.731 33.3558 227.018 32.4351C226.948 32.3459 226.629 31.6483 226.629 31.6037V20.1297C227.624 20.2676 229.589 20.0486 230.472 20.3974C231.516 20.807 231.864 22.839 232.76 22.8714C233.1 22.8836 233.017 22.7579 233 22.4861C232.942 21.4276 232.669 20.2919 232.685 19.2171L232.689 19.2131Z" fill="#142C52"></path>
  <path d="M162.442 19.8661L162.463 19.278H154.852C154.599 20.4663 156.51 19.9107 157.119 20.6326C157.38 20.9449 157.467 21.679 157.497 22.0846C157.683 24.4816 157.687 28.5172 157.497 30.9101C157.339 32.8813 156.763 32.5771 155.022 32.9705L155.005 33.7168H162.463L162.446 32.9705C161.298 32.6339 160.108 32.9746 159.967 31.5226C159.652 28.2576 160.22 24.4978 159.98 21.1802C160.357 20.1662 161.572 20.1784 162.442 19.862V19.8661Z" fill="#142C52"></path>
  <path d="M172.698 50.1532C172.417 49.9001 172.144 49.7114 171.862 49.5784C171.763 49.5312 171.664 49.4883 171.573 49.454C171.668 49.3853 171.771 49.3081 171.883 49.2181C172.164 48.9821 172.4 48.6904 172.611 48.3215C172.822 47.9483 172.93 47.5236 172.93 47.0646C172.93 46.5413 172.818 46.0995 172.599 45.7477C172.384 45.4003 172.098 45.1214 171.75 44.9112C171.415 44.7139 171.039 44.5681 170.633 44.478C170.223 44.3879 169.843 44.345 169.466 44.345C168.986 44.345 168.568 44.345 168.204 44.3622H168.096C167.426 44.3793 166.859 44.3836 166.251 44.3536C165.932 44.3364 165.601 44.3193 165.27 44.3107H165.187L165.125 44.3665C165.005 44.4823 164.997 44.6539 165.001 44.774C165.009 44.9327 165.038 45.0485 165.1 45.13L165.162 45.2201H165.266C165.328 45.2201 165.444 45.2287 165.613 45.2458C165.779 45.263 165.936 45.2844 166.093 45.3188C166.151 45.3316 166.184 45.3445 166.201 45.3531C166.234 45.4689 166.255 45.619 166.259 45.8078C166.259 46.0308 166.267 46.2625 166.267 46.5156V53.6707C166.267 53.9195 166.267 54.1512 166.259 54.3699C166.259 54.5372 166.238 54.6831 166.205 54.8075C166.188 54.8161 166.151 54.8332 166.085 54.8547C165.911 54.9018 165.762 54.9276 165.613 54.9447C165.444 54.9619 165.332 54.9705 165.27 54.9705H165.17L165.108 55.052C165.046 55.1335 165.013 55.2536 165.005 55.4166C164.997 55.5968 165.038 55.7255 165.125 55.8155L165.187 55.8799H169.003C169.623 55.867 170.265 55.7941 170.91 55.6611C171.573 55.5196 172.115 55.2708 172.524 54.919C172.942 54.5587 173.244 54.1469 173.418 53.7007C173.588 53.2589 173.675 52.7828 173.675 52.2852C173.675 51.839 173.584 51.4315 173.402 51.0712C173.228 50.7194 172.996 50.4106 172.715 50.1575L172.698 50.1532ZM171.651 52.6584C171.651 53.2804 171.531 53.7608 171.295 54.0825C171.055 54.4085 170.77 54.6187 170.414 54.7388C170.037 54.859 169.652 54.919 169.276 54.919C168.986 54.919 168.738 54.9018 168.539 54.8718C168.369 54.8461 168.241 54.7817 168.171 54.7045C168.171 54.7045 168.146 54.6573 168.125 54.5072C168.105 54.3656 168.088 54.2155 168.088 54.0611V53.9581C168.084 53.8466 168.08 53.7608 168.08 53.7007V50.2776H168.849C169.636 50.2776 170.24 50.402 170.641 50.6422C171.03 50.8781 171.299 51.1741 171.44 51.5216C171.585 51.8991 171.655 52.2723 171.655 52.6669L171.651 52.6584ZM168.746 45.323C169.441 45.323 170.008 45.5118 170.426 45.8807C170.84 46.241 171.039 46.7515 171.039 47.4421C171.039 47.7252 170.977 48.0084 170.852 48.2872C170.732 48.5489 170.538 48.7676 170.277 48.9435C170.012 49.1151 169.652 49.2009 169.214 49.2009H168.08V46.3097C168.08 46.0909 168.08 45.8893 168.088 45.6962C168.088 45.5204 168.109 45.4217 168.121 45.3702C168.142 45.3617 168.196 45.3445 168.307 45.3402C168.506 45.3273 168.655 45.323 168.75 45.323H168.746Z" fill="#142C52"></path>
  <path d="M189.819 52.5811C189.537 52.5811 189.43 52.7141 189.392 52.8257C189.264 53.1688 189.127 53.4948 188.987 53.7908C188.859 54.0611 188.689 54.2584 188.465 54.4C188.267 54.5329 187.989 54.6402 187.642 54.7131C187.282 54.7903 186.913 54.8289 186.541 54.8289H185.763C185.428 54.8289 185.184 54.8203 185.031 54.8032C184.923 54.7903 184.832 54.7646 184.757 54.7174C184.749 54.6831 184.737 54.6016 184.733 54.4343C184.728 54.1855 184.724 53.9796 184.724 53.8208V50.6293C184.724 50.6293 184.737 50.6293 184.741 50.6293C184.869 50.6122 185.018 50.6036 185.192 50.595C185.635 50.5822 185.941 50.5865 186.338 50.595C186.57 50.5993 186.785 50.6122 186.98 50.6293C187.199 50.6465 187.253 50.6808 187.269 50.6937C187.302 50.7151 187.331 50.7409 187.352 50.7709C187.36 50.7795 187.394 50.831 187.456 51.0026C187.501 51.1355 187.563 51.3543 187.65 51.7103C187.687 51.8047 187.795 51.9591 188.089 51.9591C188.283 51.9591 188.416 51.9162 188.498 51.8262L188.561 51.7618V48.4288L188.498 48.3644C188.403 48.2657 188.263 48.2143 188.072 48.2143C187.716 48.2143 187.65 48.4287 187.642 48.4974C187.576 48.7676 187.518 48.9778 187.464 49.128C187.422 49.2481 187.369 49.3382 187.302 49.3896C187.257 49.4282 187.153 49.4754 186.934 49.5012C186.727 49.5226 186.433 49.5355 186.053 49.5355H185.208C185.039 49.5355 184.882 49.5312 184.745 49.5183C184.737 49.5183 184.728 49.5183 184.72 49.5183V46.3354C184.72 46.1424 184.72 45.9579 184.728 45.7777C184.728 45.6362 184.745 45.5204 184.762 45.4432C184.782 45.4346 184.815 45.426 184.873 45.4174C185.022 45.396 185.179 45.3831 185.345 45.3788C185.519 45.3745 185.639 45.3702 185.705 45.3702H187.096C187.489 45.3702 187.832 45.4517 188.122 45.619C188.391 45.7735 188.606 46.1595 188.759 46.7472C188.772 46.8373 188.842 47.0518 189.198 47.0518C189.388 47.0518 189.529 47.0046 189.624 46.9016L189.703 46.8201L189.678 46.7086C189.599 46.3268 189.517 45.9579 189.43 45.6019C189.343 45.2544 189.272 44.8726 189.219 44.4608L189.194 44.2764H189.012C188.143 44.2764 187.236 44.2935 186.322 44.3278C185.411 44.3622 184.567 44.3793 183.814 44.3793C183.508 44.3793 183.197 44.3707 182.883 44.3536C182.56 44.3364 182.233 44.3236 181.902 44.3107H181.811L181.749 44.375C181.662 44.4651 181.625 44.6024 181.633 44.774C181.641 44.937 181.67 45.0528 181.732 45.1343L181.794 45.2201H181.898C181.96 45.2201 182.076 45.2287 182.241 45.2458C182.411 45.263 182.572 45.2887 182.725 45.3188C182.783 45.3316 182.816 45.3445 182.833 45.3531C182.866 45.4689 182.887 45.6233 182.891 45.8121C182.895 46.0351 182.899 46.2711 182.899 46.5199V53.675C182.899 53.9238 182.899 54.1554 182.891 54.3742C182.887 54.5458 182.87 54.6874 182.837 54.8161C182.816 54.8246 182.779 54.8418 182.713 54.8632C182.564 54.9061 182.407 54.9362 182.245 54.949C182.076 54.9662 181.964 54.9748 181.902 54.9748H181.798L181.736 55.0606C181.678 55.1421 181.645 55.2622 181.637 55.4166C181.629 55.5925 181.666 55.7255 181.753 55.8198L181.815 55.8842H181.902C182.225 55.8842 182.539 55.8756 182.841 55.8584C183.131 55.8413 183.466 55.8327 183.839 55.8327C184.919 55.8327 185.895 55.8456 186.748 55.867C187.617 55.8885 188.494 55.9013 189.351 55.9013H189.529L189.558 55.7212C189.612 55.3651 189.728 54.9362 189.906 54.4386C190.088 53.9238 190.257 53.4348 190.41 52.9758L190.452 52.8471L190.361 52.7527C190.253 52.6412 190.079 52.5854 189.819 52.5854V52.5811Z" fill="#142C52"></path>
  <path d="M209.956 44.285H209.819C209.575 44.3021 209.368 44.315 209.194 44.3236C209.025 44.3364 208.863 44.345 208.706 44.3493C208.549 44.3536 208.342 44.3579 208.094 44.3579C207.75 44.3579 207.432 44.3493 207.154 44.3321C206.873 44.315 206.571 44.3021 206.248 44.2892H206.082L206.041 44.4522C206.029 44.5037 206.016 44.5981 206.008 44.7268C206 44.8898 206.033 45.0228 206.111 45.1214L206.173 45.2029H206.273C206.351 45.2029 206.476 45.2158 206.645 45.2415C206.819 45.2673 206.985 45.3059 207.138 45.3531C207.278 45.396 207.324 45.4303 207.324 45.4303C207.394 45.5375 207.427 45.6534 207.44 45.7863C207.452 45.9536 207.456 46.1853 207.456 46.477V52.165C207.191 51.7918 206.894 51.3929 206.567 50.9682C206.078 50.3334 205.578 49.6856 205.056 49.0336L203.55 47.1376C203.066 46.5284 202.643 45.9837 202.279 45.5032C201.919 45.0271 201.654 44.6582 201.493 44.4051L201.423 44.2978L201.298 44.3107C201.195 44.3236 201.029 44.3278 200.806 44.3278H200.094C199.833 44.3278 199.589 44.3193 199.366 44.3021C199.134 44.2849 198.824 44.2721 198.447 44.2592H198.315L198.257 44.375C198.224 44.4437 198.199 44.5337 198.186 44.6496C198.17 44.7868 198.195 44.9198 198.257 45.0485L198.315 45.1643H198.443C198.505 45.1643 198.625 45.1772 198.799 45.1986C198.977 45.2201 199.155 45.2544 199.324 45.3059C199.486 45.3531 199.523 45.3874 199.527 45.396C199.589 45.4946 199.622 45.6062 199.639 45.7306C199.656 45.885 199.664 46.1166 199.664 46.4298V53.705C199.664 54.0182 199.656 54.2498 199.639 54.3914C199.627 54.5158 199.589 54.623 199.527 54.726C199.527 54.726 199.49 54.7646 199.324 54.8118C199.151 54.8632 198.973 54.9018 198.795 54.9276C198.563 54.9619 198.476 54.9662 198.443 54.9662H198.315L198.257 55.0863C198.195 55.215 198.17 55.348 198.186 55.4809C198.199 55.6011 198.224 55.6911 198.257 55.7598L198.319 55.8842H198.451C198.708 55.867 198.915 55.8541 199.076 55.8456L199.573 55.8113C199.742 55.7984 199.941 55.7941 200.181 55.7941C200.525 55.7941 200.839 55.8027 201.112 55.8198C201.385 55.837 201.683 55.8584 202.006 55.8799L202.155 55.8928L202.209 55.7469C202.242 55.6611 202.259 55.5582 202.259 55.4252C202.259 55.2751 202.221 55.1506 202.147 55.052L202.085 54.9705H201.985C201.932 54.9705 201.828 54.9619 201.617 54.9233C201.443 54.889 201.278 54.8504 201.129 54.7989C200.996 54.756 200.951 54.726 200.955 54.7303C200.893 54.6187 200.856 54.4986 200.843 54.3613C200.827 54.2069 200.818 53.9796 200.818 53.6879V46.6871L207.506 55.4423C207.647 55.6139 207.779 55.734 207.907 55.8027C208.048 55.8799 208.147 55.9142 208.226 55.9142C208.255 55.9142 208.309 55.9099 208.383 55.8928C208.516 55.8627 208.611 55.7769 208.64 55.6482L208.648 55.6182V55.5882C208.636 55.2922 208.628 55.0348 208.623 54.8118C208.619 54.5887 208.615 54.3614 208.615 54.1211V46.4684C208.615 46.1552 208.619 45.9193 208.632 45.7649C208.64 45.6405 208.673 45.5332 208.727 45.4432C208.727 45.4432 208.768 45.4003 208.946 45.3488C209.108 45.3016 209.285 45.2673 209.468 45.2458C209.65 45.2244 209.77 45.2115 209.832 45.2115H209.96L210.018 45.0957C210.08 44.967 210.105 44.834 210.088 44.6968C210.072 44.5809 210.051 44.4908 210.018 44.4222L209.96 44.2978L209.956 44.285Z" fill="#142C52"></path>
  <path d="M226.071 52.5811C225.789 52.5811 225.682 52.7141 225.644 52.8257C225.516 53.1688 225.38 53.4948 225.239 53.7908C225.111 54.0568 224.941 54.2584 224.713 54.4C224.515 54.5329 224.237 54.6402 223.89 54.7131C223.53 54.7903 223.161 54.8289 222.789 54.8289H222.011C221.676 54.8289 221.432 54.8203 221.279 54.8032C221.171 54.7903 221.08 54.7646 221.005 54.7217C220.997 54.6874 220.985 54.6059 220.981 54.4386C220.976 54.1898 220.972 53.9839 220.972 53.8251V50.6336C220.972 50.6336 220.985 50.6336 220.989 50.6336C221.117 50.6165 221.266 50.6079 221.44 50.5993C221.883 50.5865 222.193 50.5907 222.586 50.5993C222.818 50.6036 223.033 50.6165 223.228 50.6336C223.447 50.6508 223.501 50.6851 223.517 50.698C223.55 50.7194 223.579 50.7452 223.6 50.7752C223.608 50.7881 223.642 50.8352 223.699 51.0068C223.749 51.1441 223.811 51.38 223.894 51.7146C223.931 51.809 224.039 51.9634 224.333 51.9634C224.527 51.9634 224.66 51.9205 224.742 51.8305L224.804 51.7661V48.433L224.742 48.3687C224.647 48.27 224.506 48.2186 224.316 48.2186C223.96 48.2186 223.894 48.4288 223.882 48.5017C223.815 48.7676 223.757 48.9821 223.708 49.1323C223.666 49.2524 223.608 49.3424 223.542 49.3982C223.497 49.4368 223.393 49.484 223.178 49.5097C222.971 49.5312 222.673 49.5441 222.297 49.5441H221.452C221.283 49.5441 221.125 49.5398 220.989 49.5269C220.981 49.5269 220.972 49.5269 220.964 49.5269V46.344C220.964 46.1509 220.964 45.9665 220.972 45.7863C220.972 45.6448 220.989 45.529 221.005 45.4517C221.026 45.4432 221.059 45.4346 221.117 45.426C221.266 45.4046 221.423 45.3917 221.593 45.3874C221.767 45.3831 221.887 45.3788 221.949 45.3788H223.339C223.733 45.3788 224.076 45.4603 224.366 45.6276C224.635 45.782 224.85 46.1681 225.007 46.7558C225.02 46.8459 225.086 47.0604 225.446 47.0604C225.636 47.0604 225.777 47.0132 225.872 46.9145L225.951 46.833L225.926 46.7172C225.847 46.3354 225.765 45.9665 225.678 45.6105C225.591 45.2673 225.52 44.8812 225.467 44.4694L225.442 44.285H225.26C224.391 44.285 223.484 44.3021 222.57 44.3364C221.659 44.3707 220.815 44.3879 220.062 44.3879C219.756 44.3879 219.445 44.3793 219.127 44.3622C218.804 44.345 218.477 44.3321 218.146 44.3193H218.055L217.993 44.3793C217.906 44.4694 217.864 44.6067 217.873 44.7826C217.881 44.9456 217.914 45.0571 217.972 45.1429L218.034 45.2287H218.137C218.2 45.2287 218.315 45.2372 218.481 45.2544C218.647 45.2716 218.808 45.293 218.965 45.3273C219.023 45.3402 219.056 45.3531 219.073 45.3616C219.106 45.4775 219.127 45.6319 219.131 45.8206C219.135 46.0437 219.139 46.2796 219.139 46.5284V53.6836C219.139 53.9324 219.139 54.164 219.131 54.3828C219.127 54.5544 219.11 54.6959 219.077 54.8246C219.056 54.8332 219.019 54.8504 218.953 54.8718C218.804 54.9147 218.647 54.9447 218.485 54.9576C218.32 54.9748 218.204 54.9834 218.142 54.9834H218.038L217.976 55.0691C217.918 55.1506 217.885 55.2665 217.877 55.4252C217.868 55.6054 217.906 55.7383 217.997 55.8284L218.059 55.8928H218.146C218.469 55.8928 218.783 55.8842 219.085 55.867C219.375 55.8499 219.71 55.8413 220.083 55.8413C221.163 55.8413 222.139 55.8541 222.992 55.8756C223.861 55.897 224.734 55.9099 225.595 55.9099H225.773L225.802 55.7297C225.856 55.3823 225.971 54.949 226.145 54.4471C226.327 53.9324 226.497 53.4434 226.65 52.9844L226.692 52.8557L226.6 52.7613C226.493 52.6498 226.319 52.594 226.058 52.594L226.071 52.5811Z" fill="#142C52"></path>
  <path d="M242.293 45.6019C242.206 45.2544 242.136 44.8726 242.082 44.4608L242.057 44.2764H241.875C241.006 44.2764 240.1 44.2935 239.185 44.3278C238.275 44.3622 237.431 44.3793 236.677 44.3793C236.371 44.3793 236.061 44.3707 235.746 44.3536C235.423 44.3364 235.097 44.3236 234.765 44.3107H234.674L234.612 44.375C234.525 44.4651 234.488 44.6024 234.496 44.774C234.505 44.937 234.534 45.0528 234.596 45.1343L234.658 45.2201H234.761C234.823 45.2201 234.939 45.2287 235.105 45.2458C235.274 45.263 235.436 45.2887 235.589 45.3188C235.647 45.3316 235.68 45.3445 235.697 45.3531C235.73 45.4689 235.75 45.6233 235.755 45.8121C235.759 46.0351 235.763 46.2711 235.763 46.5199V53.675C235.763 53.9238 235.763 54.1554 235.755 54.3742C235.75 54.5458 235.734 54.6874 235.701 54.8161C235.68 54.8246 235.643 54.8418 235.577 54.8632C235.428 54.9061 235.27 54.9362 235.109 54.949C234.939 54.9662 234.828 54.9748 234.765 54.9748H234.662L234.6 55.0606C234.542 55.1421 234.509 55.2622 234.501 55.4166C234.492 55.5925 234.53 55.7255 234.616 55.8198L234.679 55.8842H234.765C235.088 55.8842 235.403 55.8713 235.705 55.8413C236.247 55.7898 236.934 55.7898 237.695 55.8241C238.051 55.8413 238.395 55.8627 238.726 55.8842L238.821 55.8928L238.887 55.8241C238.974 55.734 239.011 55.5968 239.003 55.4209C238.995 55.2579 238.966 55.1463 238.904 55.0648L238.842 54.9791H238.738C238.676 54.9791 238.544 54.9705 238.349 54.9533C238.155 54.9362 237.973 54.9061 237.803 54.8632C237.708 54.8418 237.658 54.8203 237.633 54.8075C237.613 54.7174 237.6 54.6059 237.596 54.4729C237.592 54.297 237.588 54.104 237.588 53.8895V50.6465C237.588 50.6465 237.6 50.6465 237.604 50.6465C237.733 50.6293 237.882 50.6208 238.055 50.6122C238.498 50.5993 238.805 50.6036 239.202 50.6122C239.434 50.6165 239.649 50.6293 239.843 50.6465C240.063 50.6637 240.116 50.698 240.133 50.7108C240.166 50.7323 240.195 50.758 240.216 50.7881C240.224 50.7967 240.257 50.8481 240.319 51.0197C240.365 51.1527 240.427 51.3715 240.514 51.7275C240.551 51.8219 240.659 51.9763 240.952 51.9763C241.147 51.9763 241.279 51.9334 241.362 51.8433L241.424 51.779V48.4459L241.362 48.3816C241.267 48.2829 241.126 48.2314 240.936 48.2314C240.58 48.2314 240.514 48.4459 240.505 48.5145C240.439 48.7848 240.381 48.995 240.327 49.1451C240.286 49.2652 240.232 49.3553 240.166 49.4068C240.121 49.4454 240.017 49.4926 239.798 49.5183C239.591 49.5398 239.297 49.5526 238.916 49.5526H238.072C237.902 49.5526 237.745 49.5484 237.609 49.5355C237.6 49.5355 237.592 49.5355 237.584 49.5355V46.3526C237.584 46.1595 237.584 45.9751 237.592 45.7949C237.592 45.6533 237.609 45.5375 237.625 45.4603C237.646 45.4517 237.679 45.4432 237.737 45.4346C237.886 45.4131 238.043 45.4003 238.209 45.396C238.382 45.3917 238.502 45.3874 238.569 45.3874H239.959C240.352 45.3874 240.696 45.4689 240.985 45.6362C241.254 45.7906 241.47 46.1767 241.623 46.7644C241.635 46.8545 241.706 47.0689 242.061 47.0689C242.252 47.0689 242.392 47.0217 242.488 46.9188L242.566 46.8373L242.541 46.7258C242.463 46.344 242.38 45.9751 242.293 45.619V45.6019Z" fill="#142C52"></path>
  <path d="M253.351 45.7134C253.355 45.5676 253.367 45.4474 253.392 45.3531C253.409 45.3445 253.446 45.3273 253.512 45.3145C253.661 45.2801 253.819 45.2587 253.984 45.2415C254.15 45.2244 254.265 45.2158 254.328 45.2158H254.431L254.493 45.13C254.551 45.0485 254.584 44.9327 254.592 44.7697C254.601 44.5938 254.563 44.4565 254.477 44.3665L254.414 44.2978H254.323C253.992 44.3107 253.674 44.3278 253.367 44.345C252.776 44.3793 252.155 44.3793 251.509 44.345C251.187 44.3278 250.86 44.315 250.529 44.3021H250.437L250.375 44.3665C250.289 44.4565 250.251 44.5938 250.26 44.7654C250.268 44.9284 250.297 45.0442 250.359 45.1257L250.421 45.2115H250.524C250.586 45.2115 250.702 45.2201 250.868 45.2373C251.038 45.2544 251.199 45.2801 251.352 45.3102C251.41 45.323 251.443 45.3359 251.46 45.3445C251.493 45.4603 251.513 45.6147 251.518 45.8035C251.522 46.0265 251.526 46.2625 251.526 46.5113V53.6664C251.526 53.9152 251.526 54.1469 251.518 54.3656C251.513 54.5372 251.497 54.6788 251.464 54.8075C251.443 54.8161 251.406 54.8332 251.34 54.8547C251.191 54.8976 251.033 54.9276 250.872 54.9405C250.702 54.9576 250.591 54.9662 250.529 54.9662H250.425L250.363 55.052C250.305 55.1335 250.272 55.2536 250.264 55.408C250.255 55.5839 250.293 55.7169 250.38 55.8113L250.446 55.8799L250.541 55.8713C250.872 55.8499 251.195 55.8284 251.513 55.8113C252.159 55.7769 252.78 55.7769 253.372 55.8113C253.674 55.8284 253.992 55.8499 254.319 55.8713L254.414 55.8799L254.481 55.8113C254.568 55.7212 254.605 55.5839 254.597 55.408C254.588 55.245 254.559 55.1335 254.497 55.052L254.435 54.9662H254.332C254.27 54.9662 254.154 54.9576 253.988 54.9405C253.823 54.9233 253.67 54.8933 253.529 54.8547C253.454 54.8332 253.413 54.8161 253.392 54.8032C253.372 54.7131 253.359 54.5973 253.355 54.46C253.351 54.2841 253.347 54.0911 253.347 53.8766V46.3097C253.347 46.0952 253.347 45.8979 253.355 45.7177L253.351 45.7134Z" fill="#142C52"></path>
  <path d="M272.019 45.7091C271.949 45.2287 271.883 44.7268 271.829 44.2249L271.816 44.1091L271.717 44.0576C271.568 43.9804 271.473 43.9718 271.241 44.0876C271.154 44.1262 271.009 44.1777 270.811 44.2292C270.62 44.2807 270.467 44.3064 270.351 44.3064H264.028C263.916 44.3064 263.775 44.2849 263.61 44.2378C263.436 44.1906 263.308 44.1434 263.225 44.1048C263.163 44.0748 263.088 44.049 262.993 44.0276C262.877 44.0018 262.77 44.0061 262.675 44.0447L262.559 44.0919L262.546 44.2206C262.493 44.7311 262.43 45.2287 262.364 45.7048C262.298 46.1724 262.224 46.6357 262.133 47.0818L262.112 47.1933L262.19 47.2748C262.224 47.3092 262.265 47.3435 262.331 47.3907C262.426 47.455 262.534 47.4765 262.633 47.4593C262.832 47.4593 262.968 47.395 263.043 47.2706L263.068 47.2062C263.184 46.6528 263.362 46.1853 263.602 45.8206C263.817 45.4903 264.086 45.3316 264.421 45.3316H266.3V53.6621C266.3 53.9109 266.3 54.1426 266.292 54.3614C266.287 54.5329 266.271 54.6745 266.238 54.8032C266.217 54.8118 266.18 54.8289 266.114 54.8504C265.965 54.8933 265.807 54.9233 265.646 54.9362C265.48 54.9533 265.365 54.9619 265.303 54.9619H265.199L265.137 55.0477C265.079 55.1292 265.046 55.245 265.038 55.4037C265.029 55.5839 265.067 55.7169 265.158 55.807L265.224 55.8756H265.319C265.65 55.8456 265.973 55.8241 266.292 55.8113C266.933 55.7769 267.558 55.7769 268.15 55.8113C268.452 55.8284 268.77 55.8499 269.097 55.8713H269.193L269.259 55.807C269.346 55.7169 269.387 55.5839 269.379 55.4037C269.371 55.2407 269.337 55.1292 269.279 55.0477L269.217 54.9619H269.114C269.052 54.9619 268.94 54.9533 268.779 54.9362C268.621 54.919 268.468 54.889 268.328 54.8504C268.249 54.8289 268.212 54.8075 268.191 54.7989C268.162 54.6874 268.141 54.5415 268.137 54.3656C268.133 54.1512 268.129 53.9195 268.129 53.6664V45.3359H269.975C270.314 45.3359 270.583 45.4946 270.798 45.8249C271.034 46.1896 271.208 46.6528 271.311 47.2062L271.336 47.2748C271.411 47.3992 271.551 47.4636 271.717 47.4636C271.841 47.4807 271.957 47.4636 272.052 47.4035C272.123 47.3606 272.172 47.322 272.209 47.2877L272.288 47.2062L272.263 47.0904C272.176 46.6485 272.094 46.1853 272.023 45.7091H272.019Z" fill="#142C52"></path>
  <path d="M286.685 51.4916C286.487 51.1441 286.226 50.8353 285.912 50.5693C285.61 50.3119 285.287 50.076 284.964 49.8658L284.091 49.3038C283.735 49.0636 283.387 48.8277 283.035 48.6003C282.709 48.3859 282.435 48.1371 282.224 47.8582C282.026 47.5966 281.93 47.2748 281.93 46.8759C281.93 46.6314 281.98 46.374 282.084 46.1166C282.179 45.8678 282.336 45.6619 282.56 45.4903C282.775 45.323 283.085 45.2415 283.478 45.2415C283.78 45.2415 284.053 45.3145 284.289 45.4603C284.538 45.6105 284.753 45.8035 284.927 46.0351C285.109 46.2711 285.249 46.5199 285.353 46.7729C285.456 47.026 285.518 47.2491 285.539 47.4336L285.547 47.5065L285.597 47.5579C285.68 47.648 285.854 47.751 286.201 47.6395C286.429 47.5665 286.483 47.3949 286.462 47.2963C286.45 47.0646 286.425 46.7172 286.388 46.2496C286.346 45.7777 286.296 45.3188 286.23 44.8898L286.21 44.7482L286.077 44.7139C285.725 44.6238 285.432 44.5423 285.196 44.4737C284.951 44.4008 284.711 44.345 284.48 44.3064C284.244 44.2635 283.942 44.2421 283.594 44.2421C283.023 44.2421 282.477 44.3707 281.968 44.6238C281.455 44.8769 281.028 45.2458 280.706 45.7134C280.379 46.1896 280.213 46.7558 280.213 47.3907C280.213 48.0255 280.379 48.5317 280.701 48.9778C281.012 49.4068 281.401 49.7843 281.852 50.1017C282.291 50.4063 282.721 50.6894 283.131 50.9425C283.503 51.1613 283.855 51.3672 284.178 51.5602C284.48 51.7404 284.728 51.9549 284.914 52.1951C285.088 52.4181 285.175 52.7442 285.175 53.1603C285.175 53.7522 285.009 54.1983 284.666 54.5201C284.314 54.8461 283.917 55.0048 283.445 55.0048C282.973 55.0048 282.626 54.9147 282.336 54.7345C282.038 54.5501 281.79 54.3184 281.604 54.0482C281.409 53.7694 281.264 53.4905 281.165 53.2289C281.066 52.9629 280.999 52.7484 280.966 52.5983C280.925 52.3967 280.78 52.2766 280.581 52.2766C280.47 52.2766 280.362 52.3066 280.259 52.3624C280.168 52.4138 280.089 52.4739 280.019 52.5468L279.956 52.6112V52.7013C279.956 52.7742 279.969 52.9586 279.998 53.2546C280.027 53.542 280.064 53.8766 280.114 54.2584C280.163 54.6488 280.225 55.0091 280.292 55.3351L280.321 55.4767L280.457 55.5024C280.846 55.5796 281.297 55.6826 281.798 55.807C282.315 55.9356 282.857 56 283.412 56C284.012 56 284.591 55.8627 285.134 55.5925C285.676 55.3222 286.123 54.9362 286.47 54.4429C286.822 53.9453 287 53.3619 287 52.7141C287 52.2637 286.897 51.8562 286.69 51.4959L286.685 51.4916Z" fill="#142C52"></path>
  <path d="M66.4046 57.2224V57.0217L66.5625 39.747C66.5625 39.747 66.5658 39.747 66.5691 39.747V39.191L66.7665 17.6297L63.526 33.299C55.7819 33.9602 48.4949 37.1415 42.7115 42.4249L36.1977 38.4146L57.6669 59.1568L38.04 63.7461C38.8295 58.4364 41.1751 53.3832 44.5538 49.9618L39.8724 45.3397C34.9969 50.2744 31.7959 57.7718 31.2498 65.3351L17.6366 68.5196C17.7518 68.5196 17.8669 68.513 17.9854 68.5097C34.0527 68.1511 50.1793 67.9702 66.3059 67.9669V67.5096L66.4013 57.4856V57.2224H66.4046ZM59.4993 52.768L48.5969 46.0536C52.525 42.9085 57.1767 40.8655 62.118 40.099L59.496 52.768H59.4993Z" fill="#067DC2"></path>
  <path d="M102.112 65.5259C101.431 57.2257 98.1479 49.6822 93.0125 44.7179L88.4397 49.4486C92.0256 52.9161 94.4633 58.1172 95.3252 63.9994L75.1621 59.4595L96.9405 38.4179L90.4267 42.4282C84.7156 37.2073 77.5307 34.0359 69.8885 33.322L71.2439 40.1352C76.1029 40.9313 80.6692 42.9546 84.538 46.0536L73.7442 52.7022L75.0864 59.443L75.0996 59.5121L66.8257 67.503L66.5625 67.7564L66.3487 67.9636C66.4704 67.9636 66.5954 67.9636 66.7171 67.9636C66.8849 67.9636 67.0527 67.9636 67.2238 67.9636C83.2879 67.9669 99.352 68.1511 115.36 68.5097L102.109 65.5259H102.112Z" fill="#067DC2"></path>
  <path d="M61.8417 4.25665V11.0336C61.8417 12.1226 62.0391 12.82 62.4338 13.1325C62.8286 13.4451 63.3352 13.5997 63.9504 13.5997V14.807H58.4137V13.5997C58.8841 13.5997 59.2954 13.4845 59.6441 13.2575C59.9928 13.0305 60.2132 12.7641 60.3086 12.4647C60.404 12.1653 60.4501 11.6916 60.4501 11.0468V3.51974C60.4501 2.01959 59.7461 1.26951 58.3413 1.26951V0.0621567H63.3221L71.4018 9.08937V3.68423C71.4018 2.07551 70.7241 1.26951 69.3687 1.26951V0.0621567H74.6653V1.26951C74.2968 1.26951 73.9481 1.3715 73.6257 1.57546C73.3033 1.77943 73.0829 2.03933 72.9678 2.35186C72.8526 2.66768 72.7934 3.12496 72.7934 3.72699V15.0472H71.4018L61.8417 4.25994V4.25665Z" fill="#067DC2"></path>
  <path d="M116.278 68.5327C115.952 68.5262 115.623 68.5196 115.298 68.513C99.2894 68.1544 83.2253 67.9702 67.1613 67.9669C66.9935 67.9669 66.8257 67.9669 66.6546 67.9669C66.5329 67.9669 66.4079 67.9669 66.2862 67.9669C66.2697 67.9669 66.2566 67.9669 66.2401 67.9669C50.1135 67.9669 33.9902 68.1511 17.9195 68.5097C17.8044 68.5097 17.6893 68.5163 17.5708 68.5196C11.7051 68.6512 5.84598 68.8025 3.8147e-06 68.9834C44.1392 70.3323 88.8608 70.3454 133 68.9834C127.434 68.8124 121.857 68.661 116.275 68.536L116.278 68.5327Z" fill="#142C52"></path>
</svg>
